<?xml version="1.0" encoding="UTF-8"?>
<svg width="14px" height="16px" viewBox="0 0 14 16" version="1.1" xmlns="http://www.w3.org/2000/svg" xmlns:xlink="http://www.w3.org/1999/xlink">
    <!-- Generator: Sketch 43.2 (39069) - http://www.bohemiancoding.com/sketch -->
    <title>Page 1</title>
    <desc>Created with Sketch.</desc>
    <defs></defs>
    <g id="Symbols" stroke="none" stroke-width="1" fill="none" fill-rule="evenodd">
        <g id="Page-1" fill="#F17A7F">
            <polygon id="Fill-1" points="5.4999 0 5.4999 1.58 4.3749 1.58 -0.0001 1.58 -0.0001 2.254 14.0009 2.254 14.0009 1.58 8.4999 1.58 8.4999 0"></polygon>
            <polygon id="Fill-2" points="3.5 6.0808 3.9 13.0808 4.7 13.0808 4.3 6.0808"></polygon>
            <polygon id="Fill-3" points="9.25 13.0808 10.05 13.0808 10.45 6.0808 9.65 6.0808"></polygon>
            <polygon id="Fill-4" points="6.5 13.0808 7.5 13.0808 7.5 6.0808 6.5 6.0808"></polygon>
            <path d="M10.3271,14.5808 L3.6731,14.5808 C3.0911,14.5808 2.5931,14.1078 2.5621,13.5268 L2.0531,3.5808 L11.9471,3.5808 L11.4371,13.5268 C11.4081,14.0988 10.8991,14.5808 10.3271,14.5808 M12.4351,13.5778 L13.0001,2.5808 L1.0001,2.5808 L1.5641,13.5778 C1.6211,14.6848 2.5571,15.5808 3.6731,15.5808 L10.3271,15.5808 C11.4351,15.5808 12.3791,14.6868 12.4351,13.5778" id="Fill-5"></path>
        </g>
    </g>
</svg>