<?xml version="1.0" encoding="UTF-8"?>
<svg width="17px" height="16px" viewBox="0 0 17 16" version="1.1" xmlns="http://www.w3.org/2000/svg" xmlns:xlink="http://www.w3.org/1999/xlink">
    <!-- Generator: Sketch 43.2 (39069) - http://www.bohemiancoding.com/sketch -->
    <title>Page 1</title>
    <desc>Created with Sketch.</desc>
    <defs>
        <polygon id="path-1" points="11.188 9.4427 11.188 0.58818046 0.953127039 0.58818046 0.953127039 9.4427 11.188 9.4427"></polygon>
    </defs>
    <g id="Symbols" stroke="none" stroke-width="1" fill="none" fill-rule="evenodd">
        <g id="Page-1" transform="translate(0.000000, -1.000000)">
            <g id="Group-3" transform="translate(0.000000, 3.411800)" fill="#3498DB">
                <path d="M11.7753,5.7521 L11.7753,11.1221 C11.7753,11.3741 11.5633,11.5771 11.3033,11.5771 L1.9433,11.5771 C1.6833,11.5771 1.4713,11.3741 1.4713,11.1221 L1.4713,2.0781 C1.4713,1.8261 1.6833,1.6221 1.9433,1.6221 L7.2413,1.6221 C7.4153,1.6221 7.5823,1.5641 7.7143,1.4561 C8.2413,1.0291 7.9283,0.2001 7.2413,0.2001 L1.9433,0.2001 C0.8703,0.2001 0.0003,1.0411 0.0003,2.0781 L0.0003,11.1221 C0.0003,12.1591 0.8703,13.0001 1.9433,13.0001 L11.3033,13.0001 C12.3773,13.0001 13.2473,12.1591 13.2473,11.1221 L13.2473,5.7521 C13.2473,5.1481 12.5163,4.8191 12.0383,5.2081 C11.8713,5.3431 11.7753,5.5421 11.7753,5.7521" id="Fill-1"></path>
            </g>
            <g id="Group-6" transform="translate(5.000000, 0.411800)">
                <mask id="mask-2" fill="white">
                    <use xlink:href="#path-1"></use>
                </mask>
                <g id="Clip-5"></g>
                <path d="M3.6357,7.6867 L2.8707,7.8137 L3.1507,7.1527 L7.4317,3.4977 L7.9047,4.0417 L3.6357,7.6867 Z M9.5957,2.6707 L9.0317,3.1277 L8.5587,2.5827 L9.1227,2.1257 L9.5957,2.6707 Z M10.9117,1.9747 L10.0617,0.9947 C9.8597,0.7607 9.5747,0.6187 9.2617,0.5917 C8.9477,0.5687 8.6437,0.6587 8.4027,0.8537 L2.0647,6.1757 C1.9727,6.2497 1.9017,6.3457 1.8567,6.4527 L1.0077,8.4627 C0.9067,8.7027 0.9477,8.9757 1.1157,9.1767 C1.2567,9.3467 1.4687,9.4427 1.6897,9.4427 C1.7317,9.4427 1.7727,9.4397 1.8147,9.4317 L4.0807,9.0567 C4.2097,9.0357 4.3297,8.9817 4.4297,8.9007 L10.7677,3.5777 C11.0077,3.3827 11.1567,3.1087 11.1837,2.8057 C11.2107,2.5027 11.1147,2.2077 10.9117,1.9747 L10.9117,1.9747 Z" id="Fill-4" fill="#3498DB" mask="url(#mask-2)"></path>
            </g>
        </g>
    </g>
</svg>